<svg width="347" height="230" viewBox="0 0 347 230" fill="none" xmlns="http://www.w3.org/2000/svg">
<path d="M128.865 114.936C160.84 140.783 178.769 180.967 172.183 216.811C86.8812 256.053 -6.41608 185.806 2.035 99.4726C51.0491 77.7189 96.9049 89.1013 128.865 114.936Z" fill="#640F3D" stroke="#8D1042" stroke-width="3"/>
<path d="M218.135 114.762C186.16 140.609 168.231 180.792 174.817 216.637C260.119 255.878 353.416 185.632 344.965 99.2983C295.951 77.5446 250.095 88.927 218.135 114.762Z" fill="#640F3D" stroke="#8D1042" stroke-width="3"/>
<path d="M176.116 105.957C194.399 142.784 193.937 186.783 173.002 216.615C79.1072 216.708 23.6049 113.954 67.2896 39.0105C120.91 39.679 157.841 69.1477 176.116 105.957Z" fill="#EBE5CE" stroke="#640F3D" stroke-width="3"/>
<path d="M171.007 105.957C152.724 142.784 153.186 186.783 174.121 216.615C268.016 216.708 323.518 113.954 279.833 39.0105C226.213 39.679 189.282 69.1477 171.007 105.957Z" fill="#EBE5CE" stroke="#640F3D" stroke-width="3"/>
<path d="M114.52 102.755C117.813 61.7718 140.868 24.2936 174.176 9.50201C254.711 57.7762 249.371 174.44 173.331 216.185C127.711 187.999 111.229 143.719 114.52 102.755Z" fill="#640F3D" stroke="#8D1042" stroke-width="3"/>
<circle cx="173.84" cy="86.0882" r="15.8313" fill="#EBE5CE"/>
<path d="M173.557 117.033C158.404 100.976 143.873 95.5479 132 95.5479C152.072 106.291 167.055 140.215 173.557 173.008V117.033Z" fill="#EBE5CE"/>
<path d="M173.275 117.033C188.428 100.976 202.959 95.5479 214.832 95.5479C194.76 106.291 179.777 140.215 173.275 173.008V117.033Z" fill="#EBE5CE"/>
</svg>
